# xmcd CD database file
#
# Track frame offsets:
#	150
#	15082
#	33335
#	51600
#	65790
#	83252
#	98625
#	114980
#	130762
#	147452
#	167890
#	183820
#
# Disc length: 2668 seconds
#
# Revision: 0
# Processed by: cddbd v1.5.2PL0 Copyright (c) Steve Scherf et al.
# Submitted via: CDex 1.51
#
DISCID=950a6a0c
DTITLE=Various Artist - Country's Greatest Hits of the 80's and 90's (1)
DYEAR=2003
DGENRE=Country
TTITLE0=Born Country - Alabama
TTITLE1=Hard Rock Bottom of Your Heart - Randy Travis
TTITLE2=It Ain't Nothin' - Keith Whitley
TTITLE3=Drive South - Suzy Bogguss
TTITLE4=Baby Likes to Rock It - The Tractors
TTITLE5=Little Ramona (Gone Hillbilly Nuts) - BR5-49
TTITLE6=My Arms Stay Open All Night - Tanya Tucker
TTITLE7=Nobody Wins - Radney Foster
TTITLE8=When She Cries - Restless Heart
TTITLE9=Now I Know - Lari White
TTITLE10=Daddy's Come Around - Paul Overstreet
TTITLE11=The Tips of My Fingers - Steve Wariner
EXTD=YEAR: 2003
EXTT0=
EXTT1=
EXTT2=
EXTT3=
EXTT4=
EXTT5=
EXTT6=
EXTT7=
EXTT8=
EXTT9=
EXTT10=
EXTT11=
PLAYORDER=
